// src/assets/screenshots/placeholder2.svg
<svg width="400" height="300" viewBox="0 0 400 300" fill="none" xmlns="http://www.w3.org/2000/svg">
  <rect width="400" height="300" fill="#F3F4F6"/>
  <rect x="20" y="20" width="360" height="40" rx="4" fill="#E5E7EB"/>
  <rect x="30" y="30" width="80" height="20" rx="2" fill="#9CA3AF"/>
  <rect x="300" y="30" width="70" height="20" rx="2" fill="#9CA3AF"/>
  
  <rect x="20" y="80" width="360" height="30" rx="4" fill="#EEF2FF"/>
  <rect x="30" y="90" width="60" height="10" rx="2" fill="#6366F1"/>
  <rect x="100" y="90" width="80" height="10" rx="2" fill="#8B5CF6"/>
  <rect x="190" y="90" width="70" height="10" rx="2" fill="#06B6D4"/>
  
  <rect x="20" y="130" width="360" height="150" rx="8" fill="#E5E7EB"/>
  
  <!-- Chart representation -->
  <polyline points="40,250 80,200 120,220 160,180 200,190 240,160 280,170 320,140 360,150" 
            stroke="#6366F1" stroke-width="3" fill="none"/>
  <polyline points="40,260 80,230 120,240 160,200 200,210 240,180 280,190 320,160 360,170" 
            stroke="#8B5CF6" stroke-width="3" fill="none"/>
  <polyline points="40,270 80,250 120,260 160,220 200,230 240,200 280,210 320,180 360,190" 
            stroke="#06B6D4" stroke-width="3" fill="none"/>
  
  <text x="200" y="155" text-anchor="middle" fill="#6B7280" font-family="Arial, sans-serif" font-size="14">
    Analytics Dashboard
  </text>
</svg>
