// src/assets/screenshots/placeholder3.svg
<svg width="400" height="300" viewBox="0 0 400 300" fill="none" xmlns="http://www.w3.org/2000/svg">
  <rect width="400" height="300" fill="#F3F4F6"/>
  <rect x="20" y="20" width="360" height="40" rx="4" fill="#E5E7EB"/>
  <rect x="30" y="30" width="80" height="20" rx="2" fill="#9CA3AF"/>
  <rect x="320" y="30" width="50" height="20" rx="2" fill="#9CA3AF"/>
  
  <!-- Sidebar -->
  <rect x="20" y="80" width="100" height="200" rx="8" fill="#E5E7EB"/>
  <rect x="30" y="90" width="80" height="15" rx="2" fill="#D1D5DB"/>
  <rect x="30" y="115" width="80" height="15" rx="2" fill="#D1D5DB"/>
  <rect x="30" y="140" width="80" height="15" rx="2" fill="#D1D5DB"/>
  <rect x="30" y="165" width="80" height="15" rx="2" fill="#D1D5DB"/>
  
  <!-- Main content -->
  <rect x="140" y="80" width="240" height="200" rx="8" fill="#E5E7EB"/>
  
  <!-- Customer cards -->
  <rect x="160" y="100" width="200" height="40" rx="6" fill="#FEF2F2"/>
  <circle cx="180" cy="120" r="12" fill="#F87171"/>
  <rect x="200" y="110" width="100" height="8" rx="2" fill="#DC2626"/>
  <rect x="200" y="125" width="140" height="6" rx="2" fill="#FCA5A5"/>
  
  <rect x="160" y="150" width="200" height="40" rx="6" fill="#F0FDF4"/>
  <circle cx="180" cy="170" r="12" fill="#4ADE80"/>
  <rect x="200" y="160" width="120" height="8" rx="2" fill="#16A34A"/>
  <rect x="200" y="175" width="160" height="6" rx="2" fill="#86EFAC"/>
  
  <rect x="160" y="200" width="200" height="40" rx="6" fill="#FEF3C7"/>
  <circle cx="180" cy="220" r="12" fill="#FBBF24"/>
  <rect x="200" y="210" width="110" height="8" rx="2" fill="#D97706"/>
  <rect x="200" y="225" width="150" height="6" rx="2" fill="#FDE68A"/>
  
  <text x="260" y="155" text-anchor="middle" fill="#6B7280" font-family="Arial, sans-serif" font-size="14">
    CRM System
  </text>
</svg>
