// src/assets/screenshots/placeholder1.svg
<svg width="400" height="300" viewBox="0 0 400 300" fill="none" xmlns="http://www.w3.org/2000/svg">
  <rect width="400" height="300" fill="#F3F4F6"/>
  <rect x="20" y="20" width="360" height="40" rx="4" fill="#E5E7EB"/>
  <rect x="30" y="30" width="80" height="20" rx="2" fill="#9CA3AF"/>
  <rect x="320" y="30" width="50" height="20" rx="2" fill="#9CA3AF"/>
  
  <rect x="20" y="80" width="170" height="120" rx="8" fill="#E5E7EB"/>
  <rect x="30" y="90" width="150" height="60" rx="4" fill="#D1D5DB"/>
  <rect x="30" y="160" width="100" height="15" rx="2" fill="#9CA3AF"/>
  <rect x="30" y="180" width="150" height="10" rx="2" fill="#9CA3AF"/>
  
  <rect x="210" y="80" width="170" height="120" rx="8" fill="#E5E7EB"/>
  <rect x="220" y="90" width="150" height="60" rx="4" fill="#D1D5DB"/>
  <rect x="220" y="160" width="120" height="15" rx="2" fill="#9CA3AF"/>
  <rect x="220" y="180" width="150" height="10" rx="2" fill="#9CA3AF"/>
  
  <rect x="20" y="220" width="360" height="60" rx="8" fill="#E5E7EB"/>
  <rect x="30" y="235" width="200" height="30" rx="4" fill="#D1D5DB"/>
  
  <text x="200" y="155" text-anchor="middle" fill="#6B7280" font-family="Arial, sans-serif" font-size="14">
    E-Commerce Dashboard
  </text>
</svg>
